<?xml version="1.0" encoding="UTF-8" standalone="no"?>
<!-- Created with Inkscape (http://www.inkscape.org/) -->

<svg
   width="41mm"
   height="45.7mm"
   viewBox="0 0 41 45.7"
   version="1.1"
   id="svg5"
   inkscape:version="1.2 (dc2aedaf03, 2022-05-15)"
   sodipodi:docname="bubble.svg"
   xmlns:inkscape="http://www.inkscape.org/namespaces/inkscape"
   xmlns:sodipodi="http://sodipodi.sourceforge.net/DTD/sodipodi-0.dtd"
   xmlns="http://www.w3.org/2000/svg"
   xmlns:svg="http://www.w3.org/2000/svg">
  <sodipodi:namedview
     id="namedview7"
     pagecolor="#ffffff"
     bordercolor="#000000"
     borderopacity="0.25"
     inkscape:showpageshadow="2"
     inkscape:pageopacity="0.0"
     inkscape:pagecheckerboard="0"
     inkscape:deskcolor="#d1d1d1"
     inkscape:document-units="mm"
     showgrid="false"
     inkscape:zoom="4.76"
     inkscape:cx="71.8"
     inkscape:cy="51.7"
     inkscape:window-width="1366"
     inkscape:window-height="697"
     inkscape:window-x="1912"
     inkscape:window-y="294"
     inkscape:window-maximized="1"
     inkscape:current-layer="layer1" />
  <defs
     id="defs2" />
  <g
     inkscape:label="Layer 1"
     inkscape:groupmode="layer"
     id="layer1"
     transform="translate(-73.9,-102)">
    <g
       id="g1093"
       style="fill:#8c8c8c;fill-opacity:1"
       transform="matrix(0.492,0,0,0.492,47.9,63)">
      <circle
         style="opacity:1;fill:#8c8c8c;fill-opacity:1;stroke-width:1.05974;stroke-linecap:round;stroke-linejoin:round;stroke-opacity:0.133"
         id="path741"
         cx="65.5"
         cy="91.2"
         r="9.99" />
      <path
         style="opacity:1;fill:#8c8c8c;fill-opacity:1;stroke-width:1.05974;stroke-linecap:round;stroke-linejoin:round;stroke-opacity:0.133"
         d="M 65.7,101 C 75.8,121 83.4,141 92,161 85.4,140 71.1,118 72.1,98.8 l -6.4,2.2"
         id="path807"
         sodipodi:nodetypes="cccc" />
    </g>
    <g
       id="g1107"
       transform="matrix(0.492,0,0,0.492,47.9,63)">
      <circle
         style="fill:#afafaf;stroke-width:1.78237;stroke-linecap:round;stroke-linejoin:round;stroke-opacity:0.133"
         id="path749"
         cx="71.8"
         cy="135"
         r="8.78" />
      <path
         style="fill:#afafaf;stroke-width:1.05974;stroke-linecap:round;stroke-linejoin:round;stroke-opacity:0.133"
         d="m 70.8,138 3.1,-4 c 3.9,10 12.2,18 18.3,27 -6.7,-8 -18.7,-24 -23.7,-22"
         id="path1069"
         sodipodi:nodetypes="cccc" />
    </g>
    <g
       id="g1089"
       style="fill:#b8b8b8;fill-opacity:1"
       transform="matrix(0.492,0,0,0.492,47.9,63)">
      <circle
         style="opacity:1;fill:#b8b8b8;fill-opacity:1;stroke-width:1.05974;stroke-linecap:round;stroke-linejoin:round;stroke-opacity:0.133"
         id="path743"
         cx="87.7"
         cy="106"
         r="12.3" />
      <path
         style="opacity:1;fill:#b8b8b8;fill-opacity:1;stroke-width:1.05974;stroke-linecap:round;stroke-linejoin:round;stroke-opacity:0.133"
         d="m 84,114 h 5.6 c -2.7,14 1.7,31 2.6,47 -2.7,-16 -3.1,-32 -8.2,-47 z"
         id="path1071"
         sodipodi:nodetypes="cccc" />
    </g>
    <g
       id="g1115"
       style="fill:#a2a2a2;fill-opacity:1"
       transform="matrix(0.492,0,0,0.492,47.9,63)">
      <circle
         style="fill:#a2a2a2;fill-opacity:1;stroke-width:1.37662;stroke-linecap:round;stroke-linejoin:round;stroke-opacity:0.133"
         id="path745"
         cx="120"
         cy="93.8"
         r="7.88" />
      <path
         style="fill:#a2a2a2;fill-opacity:1;stroke-width:1.05974;stroke-linecap:round;stroke-linejoin:round;stroke-opacity:0.133"
         d="m 117,93.5 6,3.5 C 109,118 102,140 92.2,161 100,139 118,108 117,93.5"
         id="path1073"
         sodipodi:nodetypes="cccc" />
    </g>
    <g
       id="g1077"
       style="fill:#777777;fill-opacity:1"
       transform="matrix(0.492,0,0,0.492,47.9,63)">
      <circle
         style="opacity:1;fill:#777777;fill-opacity:1;stroke-width:1.05974;stroke-linecap:round;stroke-linejoin:round;stroke-opacity:0.133"
         id="path747"
         cx="117"
         cy="125"
         r="16.7" />
      <path
         style="opacity:1;fill:#777777;fill-opacity:1;stroke-width:1.05974;stroke-linecap:round;stroke-linejoin:round;stroke-opacity:0.133"
         d="m 109,138 7,2 c -6,-2 -16,14 -23.8,21 5.7,-8 13.8,-14 16.8,-23 z"
         id="path1013"
         sodipodi:nodetypes="cccc" />
    </g>
    <g
       id="g1111"
       style="fill:#a2a2a2;fill-opacity:1"
       transform="matrix(0.492,0,0,0.492,47.9,63)">
      <circle
         style="fill:#a2a2a2;fill-opacity:1;stroke-width:2.03338;stroke-linecap:round;stroke-linejoin:round;stroke-opacity:0.133"
         id="path751"
         cx="94.1"
         cy="134"
         r="6.5" />
      <path
         style="fill:#a2a2a2;fill-opacity:1;stroke-width:1.05974;stroke-linecap:round;stroke-linejoin:round;stroke-opacity:0.133"
         d="m 92.5,137 c 2.3,7 -0.2,16 -0.3,24 1.1,-8 1,-17 3.4,-24 h -3.1"
         id="path811"
         sodipodi:nodetypes="cccc" />
    </g>
    <circle
       style="opacity:1;fill:#747474;fill-opacity:1;stroke-width:0.326145;stroke-linecap:round;stroke-linejoin:round;stroke-opacity:0.133"
       id="path739"
       cx="93"
       cy="142"
       r="3.07" />
  </g>
</svg>
