<?xml version="1.0" encoding="UTF-8" standalone="no"?>
<!-- Created with Inkscape (http://www.inkscape.org/) -->

<svg
   width="210mm"
   height="297mm"
   viewBox="0 0 210 297"
   version="1.1"
   id="svg4796"
   inkscape:version="1.2 (dc2aedaf03, 2022-05-15)"
   sodipodi:docname="drawing.svg"
   xmlns:inkscape="http://www.inkscape.org/namespaces/inkscape"
   xmlns:sodipodi="http://sodipodi.sourceforge.net/DTD/sodipodi-0.dtd"
   xmlns="http://www.w3.org/2000/svg"
   xmlns:svg="http://www.w3.org/2000/svg">
  <sodipodi:namedview
     id="namedview4798"
     pagecolor="#ffffff"
     bordercolor="#000000"
     borderopacity="0.25"
     inkscape:showpageshadow="2"
     inkscape:pageopacity="0.0"
     inkscape:pagecheckerboard="0"
     inkscape:deskcolor="#d1d1d1"
     inkscape:document-units="mm"
     showgrid="false"
     inkscape:zoom="0.432"
     inkscape:cx="17.4"
     inkscape:cy="628"
     inkscape:window-width="1366"
     inkscape:window-height="697"
     inkscape:window-x="1912"
     inkscape:window-y="294"
     inkscape:window-maximized="1"
     inkscape:current-layer="layer1" />
  <defs
     id="defs4793" />
  <g
     inkscape:label="Layer 1"
     inkscape:groupmode="layer"
     id="layer1">
    <path
       id="rect4884"
       style="opacity:0.518;fill:#747474;fill-opacity:1;stroke-width:0.956412;stroke-linecap:round;stroke-linejoin:round;stroke-opacity:0.133"
       d="m 110,65.5 c -3,0 -4,2 -4,5 v 10 14 h 13 1 9 c 3,0 5,-2 5,-5 v -10 -14 h -14 z" />
    <path
       id="path4903"
       style="opacity:0.518;fill:#747474;fill-opacity:1;stroke-width:0.956412;stroke-linecap:round;stroke-linejoin:round;stroke-opacity:0.133"
       d="m 141,65.5 c -3,0 -5,2 -5,5 v 10 14 h 14 1 9 c 3,0 5,-2 5,-5 v -10 -14 h -14 z" />
    <path
       id="path4905"
       style="opacity:0.518;fill:#747474;fill-opacity:1;stroke-width:0.956412;stroke-linecap:round;stroke-linejoin:round;stroke-opacity:0.133"
       d="m 110,96.5 c -3,0 -4,2 -4,4.5 v 10 14 h 13 1 9 c 3,0 5,-2 5,-5 V 110 96.5 h -14 z" />
    <path
       id="path4907"
       style="opacity:0.518;fill:#747474;fill-opacity:1;stroke-width:0.956412;stroke-linecap:round;stroke-linejoin:round;stroke-opacity:0.133"
       d="m 141,96.5 c -3,0 -5,2 -5,4.5 v 10 14 h 14 1 9 c 3,0 5,-2 5,-5 V 110 96.5 h -14 z" />
    <path
       id="path4909"
       style="opacity:0.518;fill:#747474;fill-opacity:1;stroke-width:1.93383;stroke-linecap:round;stroke-linejoin:round;stroke-opacity:0.133"
       d="m 51.7,67.5 c -5.7,0 -10,5 -10,10 v 20 28.5 h 28.5 1.4 18.5 c 5.7,0 9.9,-5 9.9,-10 V 96.5 67.5 H 71.6 Z" />
    <path
       id="path4911"
       style="opacity:0.518;fill:#747474;fill-opacity:1;stroke-width:0.956412;stroke-linecap:round;stroke-linejoin:round;stroke-opacity:0.133"
       d="m 46,190 c -3,0 -4.3,2 -4.3,5 v 10 14 h 13.3 1 9 c 3,0 5,-2 5,-5 V 204 190 H 56 Z" />
    <path
       id="path4913"
       style="opacity:0.518;fill:#747474;fill-opacity:1;stroke-width:0.956412;stroke-linecap:round;stroke-linejoin:round;stroke-opacity:0.133"
       d="m 77,190 c -3,0 -5,2 -5,5 v 10 14 h 14 1 9 c 3,0 5,-2 5,-5 V 204 190 H 87 Z" />
    <path
       id="path4915"
       style="opacity:0.518;fill:#747474;fill-opacity:1;stroke-width:0.956412;stroke-linecap:round;stroke-linejoin:round;stroke-opacity:0.133"
       d="m 46,221 c -3,0 -4.3,2 -4.3,5 v 10 14 h 13.3 1 9 c 3,0 5,-2 5,-5 V 235 221 H 56 Z" />
    <path
       id="path4917"
       style="opacity:0.518;fill:#747474;fill-opacity:1;stroke-width:0.956412;stroke-linecap:round;stroke-linejoin:round;stroke-opacity:0.133"
       d="m 77,221 c -3,0 -5,2 -5,5 v 10 14 h 14 1 9 c 3,0 5,-2 5,-5 V 235 221 H 87 Z" />
    <path
       id="path4919"
       style="opacity:0.518;fill:#747474;fill-opacity:1;stroke-width:1.93383;stroke-linecap:round;stroke-linejoin:round;stroke-opacity:0.133"
       d="m 117,191 c -6,0 -10,5 -10,10 v 20 29 h 28 2 18 c 6,0 10,-5 10,-10 v -20 -29 h -28 z" />
    <path
       id="path4921"
       style="opacity:0.518;fill:#747474;fill-opacity:1;stroke-width:1.86329;stroke-linecap:round;stroke-linejoin:round;stroke-opacity:0.133"
       d="m 51.7,132 c -5.7,0 -10,5 -10,10 v 18 27 h 28.5 1.4 0.2 18.3 16.9 30 18 c 6,0 10,-5 10,-9 V 160 132 H 137 117 100 71.8 71.6 Z" />
  </g>
</svg>
